# xmcd
#
# Track frame offsets:
#   150
#   16355
#   34073
#   50269
#
# Disc length: 4716 seconds
#
# Revision: 0
# Processed by: cddbd v1.5.2PL0 Copyright (c) Steve Scherf et al.
# Submitted via: GXTranscoder 2.0.1939
#
DISCID=27126a04
DTITLE=Massive Töne - Cruisen
DYEAR=1900
DGENRE=Hip Hop
TTITLE0=Cruisen
TTITLE1=Im Club
TTITLE2=Cruisen
TTITLE3=Bombing
EXTD=
EXTT0=
EXTT1=
EXTT2=
EXTT3=
PLAYORDER=
